# Blender 4.0.2
# www.blender.org
mtllib EM_pata.mtl
g Pata_sup_D.001_Cube.005
v 0.040962 -0.212935 0.030287
v 0.055746 -0.146446 0.041956
v 0.045817 -0.224846 0.016847
v 0.023372 -0.226100 0.033800
v 0.000652 -0.229023 0.035757
v 0.030619 -0.149129 0.053145
v 0.023521 -0.249732 0.016780
v 0.024523 -0.253192 -0.000658
v 0.000717 -0.253859 0.017537
v 0.000706 -0.257906 -0.000641
v -0.022119 -0.249897 0.016844
v -0.023144 -0.253363 -0.000592
v -0.022094 -0.226264 0.033863
v -0.044594 -0.225172 0.016973
v -0.047272 -0.227351 -0.000469
v -0.039787 -0.213226 0.030399
v -0.070138 -0.147676 0.023079
v -0.075199 -0.147988 -0.000156
v -0.100457 -0.041619 0.032929
v -0.055018 -0.146845 0.042109
v -0.078180 -0.042145 0.059918
v -0.029842 -0.149348 0.053229
v -0.042579 -0.042534 0.076509
v 0.000398 -0.150371 0.056831
v 0.000053 -0.042548 0.081959
v -0.000032 0.033649 0.096607
v 0.042667 -0.042226 0.076391
v 0.050916 0.033133 0.089959
v 0.078214 -0.041581 0.059701
v 0.092028 0.032197 0.070410
v 0.100411 -0.040894 0.032651
v 0.117809 0.034346 0.039052
v 0.070818 -0.147167 0.022884
v 0.107808 -0.040499 -0.000048
v 0.126518 0.035415 0.000029
v 0.075817 -0.147444 -0.000365
v 0.100320 -0.040669 -0.032728
v 0.117700 0.034615 -0.038972
v 0.070754 -0.147007 -0.023599
v 0.078047 -0.041169 -0.059721
v 0.055627 -0.146154 -0.042623
v 0.042454 -0.041700 -0.076320
v 0.091831 0.032682 -0.070275
v 0.050665 0.033752 -0.089746
v 0.086810 0.033812 -0.065385
v 0.091603 0.063492 -0.069113
v 0.048300 0.035090 -0.083542
v 0.110718 0.035707 -0.036422
v 0.116613 0.063343 -0.038640
v 0.118925 0.036501 0.000020
v 0.125226 0.063231 0.000019
v 0.110820 0.035456 0.036483
v 0.116721 0.063077 0.038701
v 0.086992 0.033361 0.065497
v 0.091796 0.063015 0.069221
v 0.048533 0.034513 0.083725
v 0.051429 0.063256 0.088338
v -0.000025 0.035140 0.090037
v -0.000026 0.063420 0.094983
v -0.048619 0.034163 0.083859
v -0.051017 0.032765 0.090100
v -0.051526 0.062885 0.088480
v -0.087159 0.032733 0.065738
v -0.092213 0.031532 0.070665
v -0.091991 0.062352 0.069475
v -0.111084 0.034656 0.036790
v -0.118099 0.033495 0.039379
v -0.117021 0.062234 0.039025
v -0.119293 0.035642 0.000350
v -0.125636 0.062326 0.000367
v -0.111186 0.034907 -0.036115
v -0.126919 0.034501 0.000380
v -0.107947 -0.041277 0.000251
v -0.118208 0.033764 -0.038645
v -0.100548 -0.041393 -0.032450
v -0.092409 0.032017 -0.070020
v -0.087342 0.033184 -0.065143
v -0.078347 -0.041733 -0.059505
v -0.051268 0.033385 -0.089605
v -0.042792 -0.042007 -0.076202
v -0.000301 0.034314 -0.096273
v -0.048852 0.034739 -0.083408
v -0.051773 0.063493 -0.088025
v -0.000276 0.035760 -0.089742
v -0.000291 0.064074 -0.094701
v -0.000323 0.063518 -0.101328
v 0.051182 0.063865 -0.088168
v 0.053591 0.063439 -0.094455
v 0.096727 0.063289 -0.074033
v 0.058920 0.113889 -0.091293
v 0.065087 0.151583 -0.074781
v -0.000305 0.119224 -0.097744
v 0.098006 0.096393 -0.075027
v 0.088408 0.139968 -0.065754
v 0.119344 0.112249 -0.045214
v 0.099089 0.148931 -0.049699
v 0.127921 0.116269 0.000011
v 0.123698 0.063245 -0.041174
v 0.132906 0.063136 0.000034
v 0.123813 0.062961 0.041265
v 0.096934 0.062778 0.074177
v 0.119470 0.111937 0.045281
v 0.099228 0.148588 0.049699
v 0.098216 0.095875 0.075160
v 0.088592 0.139514 0.065792
v 0.059175 0.113258 0.091441
v 0.065296 0.151067 0.074817
v -0.000032 0.118549 0.097984
v 0.053855 0.062787 0.094668
v -0.000039 0.062818 0.101660
v -0.053980 0.062398 0.094817
v -0.097160 0.062078 0.074445
v -0.059316 0.112831 0.091606
v -0.065436 0.150596 0.074998
v -0.098467 0.095166 0.075432
v -0.088804 0.138874 0.066037
v -0.119815 0.111074 0.045613
v -0.099488 0.147871 0.049974
v -0.128377 0.115345 0.000366
v -0.124151 0.062067 0.041609
v -0.133361 0.062176 0.000403
v -0.124266 0.062351 -0.040830
v -0.097367 0.062589 -0.073764
v -0.119942 0.111386 -0.044883
v -0.117129 0.062500 -0.038317
v -0.092184 0.062829 -0.068858
v -0.099626 0.148214 -0.049424
v -0.098677 0.095683 -0.074754
v -0.088988 0.139328 -0.065509
v -0.059571 0.113461 -0.091129
v -0.065645 0.151112 -0.074600
v -0.054244 0.063051 -0.094305
v -0.000236 0.159093 -0.081160
v -0.071035 0.172397 -0.053906
v -0.000151 0.186652 -0.057561
v -0.075440 0.183418 0.000106
v 0.000004 0.204117 -0.000122
v -0.070884 0.172024 0.054236
v -0.107990 0.153306 0.000257
v 0.000010 0.186256 0.057504
v 0.070738 0.172535 0.054040
v -0.000009 0.158533 0.081251
v 0.075248 0.183961 -0.000103
v 0.070587 0.172907 -0.054102
v 0.107639 0.154084 -0.000041
v -0.000175 -0.041984 -0.081773
v 0.000238 -0.149977 -0.057370
v 0.030470 -0.148761 -0.053760
v -0.029991 -0.148979 -0.053676
v 0.000551 -0.228772 -0.036839
v 0.023276 -0.225863 -0.034926
v -0.022190 -0.226027 -0.034863
v 0.000666 -0.253734 -0.018792
v -0.022168 -0.249777 -0.018007
v 0.023472 -0.249612 -0.018070
v 0.045768 -0.224726 -0.018028
v 0.048462 -0.227005 -0.000602
v 0.040875 -0.212722 -0.031372
v -0.044642 -0.225052 -0.017903
v -0.039873 -0.213014 -0.031260
v -0.070203 -0.147516 -0.023403
v -0.055136 -0.146554 -0.042469
vn 0.2674 -0.2445 0.9321
vn 0.3105 -0.4291 0.8482
vn 0.5857 -0.3338 0.7386
vn 0.5985 -0.2653 0.7559
vn 0.7700 -0.4810 0.4193
vn 0.8664 -0.2925 0.4046
vn 0.4195 -0.7656 0.4878
vn 0.0038 -0.8458 0.5335
vn 0.0028 -0.4376 0.8992
vn 0.0022 -0.2420 0.9703
vn 0.4828 -0.8757 -0.0037
vn 0.8596 -0.5110 -0.0030
vn 0.0036 -1.0000 -0.0035
vn -0.4765 -0.8792 -0.0024
vn -0.4126 -0.7686 0.4889
vn -0.3050 -0.4313 0.8491
vn -0.8559 -0.5171 -0.0006
vn -0.7653 -0.4865 0.4214
vn -0.5812 -0.3380 0.7402
vn -0.9505 -0.3106 0.0003
vn -0.8632 -0.2987 0.4070
vn -0.5945 -0.2696 0.7576
vn -0.9635 -0.2677 0.0006
vn -0.8684 -0.2627 0.4205
vn -0.5965 -0.2425 0.7651
vn -0.2630 -0.2464 0.9328
vn -0.2709 -0.2177 0.9377
vn 0.0020 -0.2081 0.9781
vn 0.2749 -0.2162 0.9368
vn -0.2745 -0.2004 0.9405
vn 0.0022 -0.1898 0.9818
vn 0.2790 -0.1995 0.9393
vn 0.6001 -0.2394 0.7633
vn 0.6101 -0.2233 0.7602
vn 0.8710 -0.2580 0.4180
vn 0.8795 -0.2384 0.4118
vn 0.9649 -0.2626 -0.0021
vn 0.9706 -0.2408 -0.0024
vn 0.9527 -0.3038 -0.0024
vn 0.8698 -0.2560 -0.4218
vn 0.8778 -0.2372 -0.4161
vn 0.8653 -0.2897 -0.4090
vn 0.5980 -0.2358 -0.7660
vn 0.6075 -0.2212 -0.7629
vn 0.5964 -0.2601 -0.7593
vn 0.2648 -0.2381 -0.9344
vn 0.2724 -0.2120 -0.9385
vn 0.2763 -0.1973 -0.9406
vn 0.0976 0.9845 -0.1459
vn 0.0714 0.9815 -0.1777
vn 0.0681 0.9812 -0.1806
vn 0.0981 0.9843 -0.1468
vn 0.1186 0.9885 -0.0935
vn 0.1158 0.9883 -0.0992
vn 0.8789 -0.2196 -0.4234
vn 0.8744 -0.2192 -0.4328
vn 0.5955 -0.1982 -0.7785
vn 0.6068 -0.1989 -0.7695
vn 0.2702 -0.1781 -0.9462
vn 0.2770 -0.1784 -0.9442
vn 0.9738 -0.2273 -0.0025
vn 0.9738 -0.2273 -0.0017
vn 0.1388 0.9903 0.0033
vn 0.1388 0.9903 0.0031
vn 0.8809 -0.2200 0.4191
vn 0.8757 -0.2195 0.4300
vn 0.1183 0.9879 0.0998
vn 0.1156 0.9877 0.1052
vn 0.6096 -0.1993 0.7673
vn 0.5973 -0.1985 0.7770
vn 0.0973 0.9836 0.1517
vn 0.0978 0.9834 0.1526
vn 0.2795 -0.1785 0.9434
vn 0.2723 -0.1782 0.9456
vn 0.0714 0.9805 0.1832
vn 0.0682 0.9802 0.1860
vn -0.0033 0.9773 0.2119
vn -0.0031 0.9773 0.2119
vn 0.0023 -0.1716 0.9852
vn 0.0018 -0.1716 0.9852
vn -0.0779 0.9800 0.1829
vn -0.0745 0.9797 0.1859
vn -0.2749 -0.1788 0.9447
vn -0.2688 -0.1785 0.9465
vn -0.1036 0.9830 0.1516
vn -0.1041 0.9828 0.1525
vn -0.6057 -0.2002 0.7701
vn -0.5944 -0.1994 0.7790
vn -0.1246 0.9872 0.0998
vn -0.1219 0.9869 0.1053
vn -0.8789 -0.2215 0.4225
vn -0.8740 -0.2211 0.4328
vn -0.1452 0.9894 0.0037
vn -0.1452 0.9894 0.0035
vn -0.9734 -0.2291 0.0002
vn -0.9734 -0.2291 0.0010
vn -0.8793 -0.2212 -0.4218
vn -0.8751 -0.2208 -0.4307
vn -0.1254 0.9878 -0.0928
vn -0.1226 0.9875 -0.0987
vn -0.9697 -0.2443 0.0003
vn -0.8772 -0.2416 0.4148
vn -0.8778 -0.2404 -0.4143
vn -0.8695 -0.2607 -0.4195
vn -0.6079 -0.2233 -0.7620
vn -0.5987 -0.2390 -0.7645
vn -0.1047 0.9839 -0.1452
vn -0.1052 0.9837 -0.1461
vn -0.0789 0.9810 -0.1770
vn -0.0754 0.9807 -0.1801
vn -0.2771 -0.1982 -0.9402
vn -0.2737 -0.2134 -0.9379
vn -0.0005 -0.1876 -0.9822
vn -0.0007 -0.2037 -0.9790
vn -0.0039 0.9784 -0.2066
vn -0.0037 0.9784 -0.2066
vn -0.0005 -0.1717 -0.9851
vn -0.0010 -0.1717 -0.9851
vn -0.2720 -0.1785 -0.9456
vn -0.2777 -0.1787 -0.9439
vn -0.5969 -0.1991 -0.7772
vn -0.6072 -0.1998 -0.7690
vn 0.0037 -0.9973 0.0735
vn -0.0188 -0.9983 0.0555
vn -0.0182 -0.9982 0.0573
vn 0.0261 -0.9981 0.0552
vn 0.0254 -0.9980 0.0571
vn -0.0209 -0.9995 0.0239
vn -0.0215 -0.9994 0.0265
vn 0.2852 0.1972 -0.9380
vn 0.2552 0.0270 -0.9665
vn -0.0018 0.0574 -0.9983
vn -0.0021 0.2303 -0.9731
vn 0.6178 0.1040 -0.7794
vn 0.6173 -0.0083 -0.7867
vn 0.3254 0.4844 -0.8121
vn 0.5742 0.3745 -0.7281
vn -0.0030 0.5338 -0.8456
vn 0.7236 0.5350 -0.4361
vn 0.8755 0.2339 -0.4228
vn 0.9144 0.0409 -0.4028
vn 0.7903 0.6128 0.0008
vn 0.9583 0.2857 -0.0004
vn 0.9966 0.0829 -0.0006
vn -0.0152 -0.9999 0.0053
vn -0.0130 -0.9999 -0.0034
vn -0.0155 -0.9999 0.0061
vn -0.0151 -0.9998 -0.0122
vn -0.0154 -0.9998 -0.0129
vn 0.8759 0.2342 0.4218
vn 0.9150 0.0410 0.4015
vn -0.0208 -0.9993 -0.0306
vn -0.0215 -0.9992 -0.0331
vn 0.6190 0.1047 0.7784
vn 0.6184 -0.0078 0.7859
vn 0.7231 0.5353 0.4367
vn 0.5742 0.3756 0.7275
vn 0.3255 0.4853 0.8115
vn 0.2864 0.1985 0.9373
vn 0.2566 0.0281 0.9661
vn -0.0006 0.5345 0.8452
vn 0.0005 0.2318 0.9728
vn 0.0009 0.0588 0.9983
vn -0.0188 -0.9979 -0.0619
vn -0.0182 -0.9978 -0.0636
vn 0.0035 -0.9968 -0.0798
vn 0.0034 -0.9968 -0.0798
vn 0.0258 -0.9978 -0.0617
vn 0.0251 -0.9977 -0.0636
vn -0.2848 0.1985 0.9378
vn -0.2545 0.0279 0.9667
vn 0.0278 -0.9991 -0.0305
vn 0.0285 -0.9990 -0.0331
vn -0.6169 0.1047 0.7801
vn -0.6165 -0.0081 0.7873
vn -0.3258 0.4851 0.8115
vn -0.5731 0.3759 0.7282
vn -0.7228 0.5350 0.4374
vn -0.8750 0.2342 0.4237
vn -0.9140 0.0407 0.4036
vn -0.7907 0.6122 0.0030
vn -0.9583 0.2856 0.0023
vn -0.9966 0.0827 0.0022
vn 0.0222 -0.9997 -0.0122
vn 0.0201 -0.9998 -0.0035
vn 0.0225 -0.9997 -0.0129
vn 0.0223 -0.9997 0.0052
vn 0.0226 -0.9997 0.0060
vn -0.8770 0.2339 -0.4198
vn -0.9157 0.0407 -0.3999
vn 0.0280 -0.9993 0.0237
vn 0.0287 -0.9992 0.0263
vn -0.6200 0.1039 -0.7777
vn -0.6197 -0.0086 -0.7848
vn -0.7258 0.5347 -0.4328
vn -0.5771 0.3747 -0.7256
vn -0.3302 0.4843 -0.8102
vn -0.2888 0.1971 -0.9369
vn -0.2584 0.0268 -0.9657
vn -0.4167 0.7719 -0.4802
vn -0.0034 0.8560 -0.5170
vn -0.4669 0.8843 0.0032
vn -0.0028 1.0000 0.0025
vn -0.4136 0.7711 0.4841
vn -0.0020 0.8546 0.5192
vn 0.4636 0.8860 0.0019
vn 0.4115 0.7722 0.4842
vn 0.4119 0.7729 -0.4826
vn -0.0005 -0.2354 -0.9719
vn -0.2656 -0.2400 -0.9337
vn 0.3081 -0.4232 -0.8520
vn 0.0003 -0.4313 -0.9022
vn -0.3074 -0.4254 -0.8512
vn 0.4182 -0.7622 -0.4942
vn 0.0023 -0.8421 -0.5393
vn -0.4140 -0.7652 -0.4931
vn 0.7688 -0.4781 -0.4247
vn 0.5836 -0.3287 -0.7425
vn -0.7665 -0.4836 -0.4226
vn -0.5833 -0.3329 -0.7409
vn -0.5966 -0.2644 -0.7577
vn -0.8643 -0.2959 -0.4066
vn -0.6063 -0.2254 0.7627
vt 0.921894 0.167281
vt 0.927154 0.115513
vt 0.937847 0.124933
vt 0.940441 0.171905
vt 0.946071 0.114851
vt 0.958461 0.171837
vt 0.931507 0.097196
vt 0.916896 0.092408
vt 0.913252 0.111433
vt 0.902513 0.162093
vt 0.938457 0.085967
vt 0.957734 0.107373
vt 0.919591 0.077949
vt 0.899179 0.078750
vt 0.901653 0.091546
vt 0.898975 0.109863
vt 0.874148 0.091845
vt 0.882217 0.102418
vt 0.885922 0.114264
vt 0.841741 0.138305
vt 0.853915 0.146237
vt 0.867088 0.153156
vt 0.804795 0.191420
vt 0.820486 0.201315
vt 0.837714 0.210219
vt 0.883719 0.157398
vt 0.858046 0.219097
vt 0.881298 0.228680
vt 0.906015 0.238592
vt 0.837837 0.255866
vt 0.862637 0.269423
vt 0.889415 0.282705
vt 0.930632 0.247673
vt 0.915192 0.294865
vt 0.955146 0.254676
vt 0.939923 0.307592
vt 0.981767 0.259256
vt 0.966447 0.321656
vt 0.977082 0.169532
vt 0.626167 0.084708
vt 0.679472 0.048625
vt 0.692976 0.072089
vt 0.648498 0.104839
vt 0.765465 0.021946
vt 0.769753 0.040255
vt 0.708055 0.092743
vt 0.669019 0.123740
vt 0.775936 0.057225
vt 0.786718 0.073062
vt 0.725151 0.112769
vt 0.689417 0.143797
vt 0.686867 0.147036
vt 0.666345 0.127550
vt 0.645206 0.109366
vt 0.631050 0.125862
vt 0.652976 0.142814
vt 0.675108 0.160236
vt 0.608312 0.105371
vt 0.623016 0.090369
vt 0.926337 0.331213
vt 0.936831 0.312257
vt 0.962243 0.326570
vt 0.953301 0.345542
vt 0.902947 0.316494
vt 0.912552 0.298706
vt 0.879019 0.301796
vt 0.887261 0.286234
vt 0.860939 0.272646
vt 0.853334 0.286589
vt 0.836336 0.259251
vt 0.828502 0.272937
vt 0.817088 0.243941
vt 0.815759 0.247399
vt 0.807551 0.261216
vt 0.799170 0.234164
vt 0.797548 0.237715
vt 0.789563 0.250669
vt 0.782555 0.223394
vt 0.780069 0.226961
vt 0.771962 0.238598
vt 0.754440 0.226380
vt 0.763841 0.214377
vt 0.766610 0.211630
vt 0.790032 0.180175
vt 0.751130 0.198260
vt 0.775649 0.167121
vt 0.748350 0.200699
vt 0.732645 0.182944
vt 0.730001 0.185517
vt 0.760202 0.151115
vt 0.711235 0.164366
vt 0.743080 0.132586
vt 0.708815 0.167066
vt 0.698345 0.179092
vt 0.719847 0.197656
vt 0.738205 0.213224
vt 0.696114 0.181772
vt 0.672469 0.163125
vt 0.717761 0.200517
vt 0.649809 0.145914
vt 0.652662 0.184268
vt 0.677312 0.205545
vt 0.638044 0.162245
vt 0.634938 0.200010
vt 0.625328 0.186454
vt 0.663085 0.224791
vt 0.611686 0.187187
vt 0.613067 0.159557
vt 0.627232 0.129705
vt 0.571868 0.186185
vt 0.578987 0.148180
vt 0.603086 0.109078
vt 0.951566 0.351691
vt 0.924003 0.336101
vt 0.901059 0.359698
vt 0.923356 0.387800
vt 0.901105 0.320537
vt 0.889945 0.337201
vt 0.875752 0.370640
vt 0.871735 0.357579
vt 0.890332 0.407709
vt 0.855732 0.353301
vt 0.864325 0.331164
vt 0.877208 0.305284
vt 0.822727 0.335572
vt 0.835863 0.315484
vt 0.851588 0.289629
vt 0.826546 0.275909
vt 0.810670 0.296863
vt 0.805358 0.264066
vt 0.796900 0.278335
vt 0.794581 0.312113
vt 0.785681 0.299585
vt 0.773230 0.299701
vt 0.776401 0.276220
vt 0.787199 0.253719
vt 0.733370 0.294093
vt 0.753480 0.265184
vt 0.769561 0.242096
vt 0.752443 0.229678
vt 0.735033 0.247664
vt 0.736326 0.216278
vt 0.725845 0.229201
vt 0.714023 0.258773
vt 0.709767 0.247077
vt 0.694881 0.243069
vt 0.703587 0.222723
vt 0.690833 0.260390
vt 0.650275 0.242771
vt 0.692034 0.305073
vt 0.620785 0.285134
vt 0.780623 0.396535
vt 0.737311 0.336569
vt 0.779691 0.321983
vt 0.810246 0.353944
vt 0.850596 0.415641
vt 0.851410 0.371434
vt 0.619497 0.210311
vt 0.578403 0.226259
vt 0.798322 0.089484
vt 0.809256 0.105520
vt 0.833575 0.050168
vt 0.842228 0.061830
vt 0.848644 0.074716
vt 0.849300 0.039723
vt 0.858869 0.051816
vt 0.864951 0.065865
vt 0.871555 0.044268
vt 0.877850 0.063777
vt 0.857459 0.029287
vt 0.827640 0.032143
vt 0.830629 0.018579
vt 0.821009 0.043375
vt 0.861433 0.087904
vt 0.849022 0.088511
vt 0.819012 0.119670
vt 0.830077 0.129635
s 1
usemtl EM
f 6/1/1 4/2/2 1/3/3 2/4/4
f 2/4/4 1/3/3 3/5/5 33/6/6
f 7/7/7 3/5/5 1/3/3 4/2/2
f 9/8/8 7/7/7 4/2/2 5/9/9
f 24/10/10 5/9/9 4/2/2 6/1/1
f 8/11/11 157/12/12 3/5/5 7/7/7
f 10/13/13 8/11/11 7/7/7 9/8/8
f 12/14/14 10/13/13 9/8/8 11/15/15
f 11/15/15 9/8/8 5/9/9 13/16/16
f 15/17/17 12/14/14 11/15/15 14/18/18
f 14/18/18 11/15/15 13/16/16 16/19/19
f 18/20/20 15/17/17 14/18/18 17/21/21
f 17/21/21 14/18/18 16/19/19 20/22/22
f 73/23/23 18/20/20 17/21/21 19/24/24
f 19/24/24 17/21/21 20/22/22 21/25/25
f 20/22/22 16/19/19 13/16/16 22/26/26
f 21/25/25 20/22/22 22/26/26 23/27/27
f 23/27/27 22/26/26 24/10/10 25/28/28
f 22/26/26 13/16/16 5/9/9 24/10/10
f 25/28/28 24/10/10 6/1/1 27/29/29
f 61/30/30 23/27/27 25/28/28 26/31/31
f 26/31/31 25/28/28 27/29/29 28/32/32
f 28/32/32 27/29/29 29/33/33 30/34/34
f 27/29/29 6/1/1 2/4/4 29/33/33
f 30/34/34 29/33/33 31/35/35 32/36/36
f 29/33/33 2/4/4 33/6/6 31/35/35
f 32/36/36 31/35/35 34/37/37 35/38/38
f 31/35/35 33/6/6 36/39/39 34/37/37
f 35/40/38 34/41/37 37/42/40 38/43/41
f 34/41/37 36/44/39 39/45/42 37/42/40
f 38/43/41 37/42/40 40/46/43 43/47/44
f 37/42/40 39/45/42 41/48/45 40/46/43
f 40/46/43 41/48/45 148/49/46 42/50/47
f 43/47/44 40/46/43 42/50/47 44/51/48
f 43/47/49 44/51/50 47/52/51 45/53/52
f 38/43/53 43/47/49 45/53/52 48/54/54
f 49/55/55 48/54/56 45/53/57 46/56/58
f 46/56/58 45/53/57 47/52/59 87/57/60
f 51/58/61 50/59/62 48/54/56 49/55/55
f 35/40/63 38/43/53 48/54/54 50/59/64
f 53/60/65 52/61/66 50/62/62 51/63/61
f 32/36/67 35/38/63 50/62/64 52/61/68
f 55/64/69 54/65/70 52/61/66 53/60/65
f 30/34/71 32/36/67 52/61/68 54/65/72
f 57/66/73 56/67/74 54/65/70 55/64/69
f 28/32/75 30/34/71 54/65/72 56/67/76
f 26/31/77 28/32/75 56/67/76 58/68/78
f 59/69/79 58/68/80 56/67/74 57/66/73
f 61/30/81 26/31/77 58/68/78 60/70/82
f 62/71/83 60/70/84 58/68/80 59/69/79
f 64/72/85 61/30/81 60/70/82 63/73/86
f 65/74/87 63/73/88 60/70/84 62/71/83
f 67/75/89 64/72/85 63/73/86 66/76/90
f 68/77/91 66/76/92 63/73/88 65/74/87
f 72/78/93 67/75/89 66/76/90 69/79/94
f 70/80/95 69/79/96 66/76/92 68/77/91
f 125/81/97 71/82/98 69/79/96 70/80/95
f 74/83/99 72/78/93 69/79/94 71/82/100
f 72/78/101 73/23/23 19/24/24 67/75/102
f 74/83/103 75/84/104 73/23/23 72/78/101
f 76/85/105 78/86/106 75/84/104 74/83/103
f 76/85/107 74/83/99 71/82/100 77/87/108
f 79/88/109 76/85/107 77/87/108 82/89/110
f 79/88/111 80/90/112 78/86/106 76/85/105
f 81/91/113 146/92/114 80/90/112 79/88/111
f 81/91/115 79/88/109 82/89/110 84/93/116
f 85/94/117 84/93/118 82/89/119 83/95/120
f 83/95/120 82/89/119 77/87/121 126/96/122
f 87/57/60 47/52/59 84/93/118 85/94/117
f 44/51/50 81/91/115 84/93/116 47/52/51
f 86/97/123 88/98/124 87/57/125 85/94/123
f 132/99/126 86/97/123 85/94/123 83/95/127
f 88/98/124 89/100/128 46/56/129 87/57/125
f 90/101/130 88/98/131 86/97/132 92/102/133
f 93/103/134 89/100/135 88/98/131 90/101/130
f 91/104/136 94/105/137 93/103/134 90/101/130
f 133/106/138 91/104/136 90/101/130 92/102/133
f 94/105/137 96/107/139 95/108/140 93/103/134
f 95/108/140 98/109/141 89/100/135 93/103/134
f 96/107/139 145/110/142 97/111/143 95/108/140
f 97/111/143 99/112/144 98/109/141 95/108/140
f 98/109/145 99/112/146 51/58/146 49/55/147
f 89/100/128 98/109/145 49/55/147 46/56/129
f 99/113/146 100/114/148 53/60/149 51/63/146
f 102/115/150 100/114/151 99/113/144 97/116/143
f 100/114/148 101/117/152 55/64/153 53/60/149
f 104/118/154 101/117/155 100/114/151 102/115/150
f 103/119/156 105/120/157 104/118/154 102/115/150
f 145/121/142 103/119/156 102/115/150 97/116/143
f 105/120/157 107/122/158 106/123/159 104/118/154
f 106/123/159 109/124/160 101/117/155 104/118/154
f 107/122/158 142/125/161 108/126/162 106/123/159
f 108/126/162 110/127/163 109/124/160 106/123/159
f 101/117/152 109/124/164 57/66/165 55/64/153
f 109/124/164 110/127/166 59/69/167 57/66/165
f 110/127/166 111/128/168 62/71/169 59/69/167
f 113/129/170 111/128/171 110/127/163 108/126/162
f 111/128/168 112/130/172 65/74/173 62/71/169
f 115/131/174 112/130/175 111/128/171 113/129/170
f 114/132/176 116/133/177 115/131/174 113/129/170
f 142/125/161 114/132/176 113/129/170 108/126/162
f 116/133/177 118/134/178 117/135/179 115/131/174
f 117/135/179 120/136/180 112/130/175 115/131/174
f 118/134/178 139/137/181 119/138/182 117/135/179
f 119/138/182 121/139/183 120/136/180 117/135/179
f 120/136/184 121/139/185 70/80/185 68/77/186
f 112/130/172 120/136/184 68/77/186 65/74/173
f 121/139/185 122/140/187 125/81/188 70/80/185
f 124/141/189 122/140/190 121/139/183 119/138/182
f 122/140/187 123/142/191 126/96/192 125/81/188
f 128/143/193 123/142/194 122/140/190 124/141/189
f 126/96/122 77/87/121 71/82/98 125/81/97
f 123/142/191 132/99/126 83/95/127 126/96/192
f 127/144/195 129/145/196 128/143/193 124/141/189
f 139/137/181 127/144/195 124/141/189 119/138/182
f 129/145/196 131/146/197 130/147/198 128/143/193
f 130/147/198 132/99/199 123/142/194 128/143/193
f 131/146/197 133/106/138 92/102/133 130/147/198
f 92/102/133 86/97/132 132/99/199 130/147/198
f 131/146/197 129/145/196 127/144/195 134/148/200
f 133/106/138 131/146/197 134/148/200 135/149/201
f 135/149/201 134/148/200 136/150/202 137/151/203
f 134/148/200 127/144/195 139/137/181 136/150/202
f 137/152/203 136/153/202 138/154/204 140/155/205
f 136/153/202 139/137/181 118/134/178 138/154/204
f 140/155/205 138/154/204 114/132/176 142/125/161
f 138/154/204 118/134/178 116/133/177 114/132/176
f 143/156/206 137/152/203 140/155/205 141/157/207
f 141/157/207 140/155/205 142/125/161 107/122/158
f 145/121/142 143/156/206 141/157/207 103/119/156
f 103/119/156 141/157/207 107/122/158 105/120/157
f 144/158/208 135/149/201 137/151/203 143/159/206
f 96/107/139 144/158/208 143/159/206 145/110/142
f 91/104/136 133/106/138 135/149/201 144/158/208
f 94/105/137 91/104/136 144/158/208 96/107/139
f 44/51/48 42/50/47 146/92/114 81/91/113
f 42/50/47 148/49/46 147/160/209 146/92/114
f 146/92/114 147/160/209 149/161/210 80/90/112
f 148/49/46 151/162/211 150/163/212 147/160/209
f 147/160/209 150/163/212 152/164/213 149/161/210
f 150/163/212 151/162/211 155/165/214 153/166/215
f 152/164/213 150/163/212 153/166/215 154/167/216
f 154/167/216 153/166/215 10/168/13 12/169/14
f 153/166/215 155/165/214 8/170/11 10/168/13
f 155/165/214 156/171/217 157/172/12 8/170/11
f 151/162/211 158/173/218 156/171/217 155/165/214
f 36/44/39 157/172/12 156/171/217 39/45/42
f 39/45/42 156/171/217 158/173/218 41/48/45
f 41/48/45 158/173/218 151/162/211 148/49/46
f 33/6/6 3/5/5 157/12/12 36/39/39
f 159/174/219 154/167/216 12/169/14 15/17/17
f 160/175/220 152/164/213 154/167/216 159/174/219
f 162/176/221 160/175/220 159/174/219 161/177/222
f 161/177/222 159/174/219 15/17/17 18/20/20
f 78/86/106 162/176/221 161/177/222 75/84/104
f 75/84/104 161/177/222 18/20/20 73/23/23
f 149/161/210 152/164/213 160/175/220 162/176/221
f 80/90/112 149/161/210 162/176/221 78/86/106
f 67/75/102 19/24/24 21/25/25 64/72/223
f 64/72/223 21/25/25 23/27/27 61/30/30
